# xmcd CD database file
#
# Track frame offsets:
#	183
#	50945
#	89983
#	120720
#	174795
#	233270
#
# Disc length: 3596 seconds
#
# Revision: 2
# Processed by: cddbd v1.4b41PL1 Copyright (c) Steve Scherf et al.
# Submitted via: Feurio! 1.50.2ß - http://www.feurio.com
#
DISCID=490e0a06
DTITLE=Obsession - Et pourtant elle tourne!
DYEAR=1900
DGENRE=
TTITLE0=Chamelle de bois pour manége á eau
TTITLE1=Ballades
TTITLE2=Melodie volée au Café Pinguin
TTITLE3=Ressemblance
TTITLE4=Musique du sabloir
TTITLE5=Manege a eau pour chamelle de bois
EXTD=
EXTT0=
EXTT1=
EXTT2=
EXTT3=
EXTT4=
EXTT5=
PLAYORDER=
